<svg width="100" height="100" viewBox="0 0 100 100" fill="none" xmlns="http://www.w3.org/2000/svg">
<path fill-rule="evenodd" clip-rule="evenodd" d="M21.3883 41.8213C16.8706 46.339 16.8706 53.6636 21.3883 58.1813L41.8187 78.6117C46.3364 83.1294 53.661 83.1294 58.1787 78.6117L78.6117 58.1787C83.1294 53.661 83.1294 46.3364 78.6117 41.8187L58.1813 21.3883C53.6636 16.8706 46.339 16.8706 41.8213 21.3883L21.3883 41.8213ZM34.0538 43.9324C33.2452 46.0737 32.8409 48.3648 32.8409 50.8055H35.9855C35.9855 48.799 36.3074 46.9198 36.9513 45.1678C37.5952 43.4158 38.5086 41.8735 39.6916 40.5408C40.8745 39.2081 42.2821 38.1674 43.9143 37.4186C45.5614 36.6699 47.3883 36.2956 49.3948 36.2956C51.4013 36.2956 53.2806 36.6699 55.0326 37.4186C56.7846 38.1823 58.3194 39.2305 59.6371 40.5632C60.9698 41.8959 62.0105 43.4383 62.7592 45.1902C63.508 46.9422 63.8823 48.814 63.8823 50.8055C63.8823 52.7971 63.508 54.6614 62.7592 56.3984C62.0105 58.1504 60.9698 59.6927 59.6371 61.0254C58.3194 62.3581 56.7846 63.3988 55.0326 64.1475C53.2806 64.9112 51.4013 65.293 49.3948 65.293C48.3167 65.293 47.2161 65.1583 46.093 64.8887C44.9849 64.6192 44.049 64.1999 43.2854 63.6309C42.5366 63.0619 42.1623 62.3282 42.1623 61.4297C42.1623 60.7259 42.4019 60.0895 42.8811 59.5205C43.3602 58.9515 43.9592 58.667 44.6779 58.667H57.4809L57.8627 56.1289H55.3021C56.2155 55.5299 56.9418 54.6988 57.4809 53.6357C58.0349 52.5725 58.3119 51.397 58.3119 50.1092C58.3119 48.4771 57.9076 46.9796 57.099 45.617C56.3054 44.2693 55.2347 43.1912 53.8871 42.3826C52.5394 41.5889 51.042 41.1921 49.3948 41.1921C47.7477 41.1921 46.2427 41.5889 44.8801 42.3826C43.5324 43.1912 42.4543 44.2693 41.6457 45.617C40.8521 46.9796 40.4552 48.4771 40.4552 50.1092C40.4552 51.427 40.7323 52.5875 41.2863 53.5907C41.8553 54.594 42.6115 55.4026 43.5549 56.0166C42.7014 56.0914 41.9302 56.4059 41.2414 56.9599C40.5526 57.514 40.006 58.2028 39.6017 59.0264C39.2124 59.8649 39.0177 60.7184 39.0177 61.5869C39.0177 62.68 39.3172 63.6459 39.9162 64.4844C40.5301 65.338 41.3387 66.0567 42.342 66.6407C43.3602 67.2247 44.4833 67.6665 45.7112 67.9659C46.939 68.2804 48.1669 68.4376 49.3948 68.4376C51.8206 68.4376 54.0967 67.9809 56.223 67.0675C58.3494 66.169 60.2211 64.9112 61.8383 63.294C63.4555 61.6918 64.7209 59.82 65.6343 57.6787C66.5627 55.5524 67.0269 53.2613 67.0269 50.8055C67.0269 48.3648 66.5702 46.0737 65.6567 43.9324C64.7433 41.8061 63.478 39.9343 61.8608 38.3171C60.2436 36.6999 58.3643 35.4346 56.223 34.5211C54.0967 33.6077 51.8206 33.151 49.3948 33.151C46.969 33.151 44.7453 33.6077 42.7238 34.5211C40.7023 35.4346 38.9503 36.6999 37.4679 38.3171C36.0004 39.9343 34.8624 41.8061 34.0538 43.9324ZM43.9592 53.3661C43.3153 52.5126 42.9934 51.4944 42.9934 50.3114C42.9934 49.1584 43.2779 48.0952 43.8469 47.1219C44.4159 46.1486 45.1796 45.3699 46.1379 44.7859C47.1112 44.2019 48.1969 43.9099 49.3948 43.9099C50.5778 43.9099 51.6484 44.1945 52.6068 44.7635C53.5801 45.3475 54.3513 46.1186 54.9203 47.077C55.4893 48.0503 55.7738 49.1284 55.7738 50.3114C55.7738 51.5692 55.4818 52.6249 54.8978 53.4784C54.3288 54.332 53.5801 54.9684 52.6517 55.3876C51.7233 55.8219 50.7275 56.039 49.6643 56.039C48.5563 56.039 47.4856 55.8069 46.4524 55.3427C45.4341 54.8785 44.6031 54.2197 43.9592 53.3661Z" fill="#F5F3EF"/>
</svg>
